<svg width="1539" height="379" viewBox="0 0 1539 379" fill="none" xmlns="http://www.w3.org/2000/svg">
<path d="M98.5385 53.9326C97.9751 47.7721 95.468 42.9837 91.0171 39.5674C86.6226 36.0951 80.3407 34.3589 72.1714 34.3589C66.7627 34.3589 62.2556 35.059 58.6499 36.4592C55.0441 37.8593 52.3397 39.7914 50.5369 42.2556C48.734 44.6638 47.8044 47.4361 47.748 50.5723C47.6354 53.1485 48.1425 55.4167 49.2692 57.3769C50.4524 59.337 52.1426 61.0732 54.3398 62.5854C56.5934 64.0415 59.2978 65.3296 62.4528 66.4497C65.6078 67.5698 69.1572 68.5494 73.101 69.3904L87.9747 72.7496C96.5384 74.5984 104.088 77.0622 110.623 80.1423C117.215 83.2235 122.737 86.8914 127.187 91.1472C131.694 95.4042 135.103 100.305 137.413 105.849C139.722 111.394 140.906 117.61 140.962 124.498C140.906 135.363 138.146 144.689 132.681 152.473C127.215 160.258 119.356 166.222 109.102 170.367C98.9046 174.511 86.5944 176.584 72.1714 176.584C57.692 176.584 45.072 174.427 34.311 170.115C23.55 165.802 15.1836 159.249 9.21162 150.457C3.23955 141.664 0.169025 130.547 0 117.105H40.0577C40.3956 122.65 41.8887 127.271 44.5367 130.967C47.1846 134.663 50.8186 137.464 55.4385 139.368C60.1146 141.272 65.5233 142.224 71.6644 142.224C77.2983 142.224 82.0872 141.468 86.031 139.956C90.0312 138.444 93.1017 136.344 95.2426 133.655C97.3835 130.967 98.4821 127.887 98.5385 124.414C98.4821 121.166 97.4681 118.395 95.4962 116.098C93.5243 113.746 90.4818 111.729 86.369 110.05C82.3126 108.314 77.1294 106.717 70.8192 105.261L52.7342 101.06C37.7478 97.6445 25.9446 92.1278 17.3245 84.5116C8.70449 76.8387 4.42264 66.4777 4.47904 53.4286C4.42264 42.7877 7.29601 33.4628 13.099 25.4542C18.902 17.4455 26.9305 11.201 37.1844 6.72055C47.4382 2.24026 59.1287 0 72.2559 0C85.6649 0 97.299 2.26817 107.158 6.80465C117.074 11.2849 124.764 17.5855 130.229 25.7062C135.695 33.8269 138.484 43.2357 138.596 53.9326H98.5385ZM156.427 36.1231V2.35227H302.715V36.1231H250.233V174.399H208.992V36.1231H156.427Z" fill="#F7F6F2"/>
<path d="M656.537 64.624H614.452C613.892 60.3158 612.741 56.4272 611.002 52.9582C609.263 49.4892 606.962 46.5238 604.101 44.0619C601.239 41.6 597.844 39.7256 593.916 38.4387C590.045 37.0959 585.752 36.4245 581.038 36.4245C572.677 36.4245 565.468 38.4667 559.408 42.5511C553.403 46.6357 548.775 52.5385 545.52 60.2598C542.322 67.9809 540.722 77.3246 540.722 88.2919C540.722 99.7059 542.35 109.273 545.604 116.994C548.914 124.66 553.544 130.451 559.492 134.367C565.496 138.228 572.593 140.159 580.786 140.159C585.387 140.159 589.567 139.572 593.327 138.396C597.142 137.221 600.482 135.515 603.342 133.277C606.261 130.983 608.646 128.213 610.497 124.968C612.405 121.667 613.724 117.945 614.452 113.806L656.537 114.058C655.807 121.667 653.591 129.164 649.887 136.55C646.24 143.936 641.219 150.677 634.822 156.776C628.424 162.819 620.626 167.631 611.423 171.212C602.277 174.792 591.784 176.584 579.944 176.584C564.345 176.584 550.373 173.17 538.03 166.344C525.74 159.462 516.033 149.447 508.908 136.298C501.782 123.15 498.218 107.147 498.218 88.2919C498.218 69.38 501.837 53.3498 509.076 40.2012C516.314 27.0526 526.105 17.0652 538.45 10.2392C550.795 3.41309 564.626 0 579.944 0C590.381 0 600.033 1.45479 608.898 4.36424C617.764 7.2178 625.563 11.4141 632.296 16.9533C639.03 22.4366 644.501 29.1788 648.709 37.1798C652.918 45.1809 655.527 54.329 656.537 64.624ZM680.377 174.233V2.35004H722.039V75.0309H724.312L781.293 2.35004H830.362L769.257 79.0593L831.457 174.233H781.63L738.705 106.672L722.039 127.653V174.233H680.377ZM846.797 174.233V2.35004H888.459V71.3381H956.382V2.35004H997.96V174.233H956.382V105.161H888.459V174.233H846.797ZM1186.79 88.2919C1186.79 107.204 1183.15 123.233 1175.85 136.382C1168.55 149.531 1158.68 159.517 1146.22 166.344C1133.82 173.17 1119.91 176.584 1104.47 176.584C1088.99 176.584 1075.04 173.142 1062.64 166.26C1050.24 159.378 1040.39 149.39 1033.1 136.298C1025.86 123.15 1022.24 107.147 1022.24 88.2919C1022.24 69.38 1025.86 53.3498 1033.1 40.2012C1040.39 27.0526 1050.24 17.0652 1062.64 10.2392C1075.04 3.41309 1088.99 0 1104.47 0C1119.91 0 1133.82 3.41309 1146.22 10.2392C1158.68 17.0652 1168.55 27.0526 1175.85 40.2012C1183.15 53.3498 1186.79 69.38 1186.79 88.2919ZM1144.2 88.2919C1144.2 77.1012 1142.6 67.6454 1139.4 59.9241C1136.26 52.2028 1131.72 46.3558 1125.77 42.3833C1119.88 38.4107 1112.78 36.4245 1104.47 36.4245C1096.23 36.4245 1089.13 38.4107 1083.18 42.3833C1077.23 46.3558 1072.66 52.2028 1069.46 59.9241C1066.32 67.6454 1064.75 77.1012 1064.75 88.2919C1064.75 99.4814 1066.32 108.937 1069.46 116.659C1072.66 124.38 1077.23 130.227 1083.18 134.2C1089.13 138.173 1096.23 140.159 1104.47 140.159C1112.78 140.159 1119.88 138.173 1125.77 134.2C1131.72 130.227 1136.26 124.38 1139.4 116.659C1142.6 108.937 1144.2 99.4814 1144.2 88.2919ZM1211.12 174.233V2.35004H1252.77V140.495H1324.49V174.233H1211.12ZM1346.06 2.35004H1397.65L1441.41 108.77H1443.44L1487.2 2.35004H1538.8V174.233H1498.22V68.6521H1496.8L1455.38 173.142H1429.47L1388.06 68.0648H1386.62V174.233H1346.06V2.35004Z" fill="#F7F6F2"/>
<path d="M157.664 378.393V201.81H277.488V236.472H200.091V272.685H269.86V307.432H200.091V378.393H157.664Z" fill="#F7F6F2"/>
<path d="M662.189 290.102C662.189 309.013 658.555 325.043 651.285 338.192C644.017 351.341 634.176 361.327 621.762 368.154C609.405 374.979 595.538 378.393 580.161 378.393C564.729 378.393 550.834 374.952 538.477 368.07C526.12 361.188 516.306 351.2 509.038 338.108C501.825 324.959 498.218 308.957 498.218 290.102C498.218 271.19 501.825 255.16 509.038 242.011C516.306 228.862 526.12 218.875 538.477 212.049C550.834 205.223 564.729 201.81 580.161 201.81C595.538 201.81 609.405 205.223 621.762 212.049C634.176 218.875 644.017 228.862 651.285 242.011C658.555 255.16 662.189 271.19 662.189 290.102ZM619.75 290.102C619.75 278.911 618.157 269.455 614.969 261.734C611.837 254.013 607.309 248.165 601.382 244.193C595.51 240.221 588.437 238.234 580.161 238.234C571.942 238.234 564.868 240.221 558.941 244.193C553.016 248.165 548.458 254.013 545.271 261.734C542.139 269.455 540.573 278.911 540.573 290.102C540.573 301.291 542.139 310.747 545.271 318.468C548.458 326.189 553.016 332.037 558.941 336.009C564.868 339.982 571.942 341.969 580.161 341.969C588.437 341.969 595.51 339.982 601.382 336.009C607.309 332.037 611.837 326.189 614.969 318.468C618.157 310.747 619.75 301.291 619.75 290.102Z" fill="#F7F6F2"/>
<path d="M472.992 138.744C472.992 157.656 469.358 173.686 462.088 186.835C454.82 199.983 444.979 209.97 432.565 216.797C420.208 223.622 406.342 227.036 390.965 227.036C375.532 227.036 361.638 223.595 349.28 216.713C336.923 209.831 327.11 199.843 319.841 186.751C312.628 173.602 309.021 157.6 309.021 138.744C309.021 119.833 312.628 103.803 319.841 90.654C327.11 77.5053 336.923 67.5177 349.28 60.6916C361.638 53.8656 375.532 50.4525 390.965 50.4525C406.342 50.4525 420.208 53.8656 432.565 60.6916C444.979 67.5177 454.82 77.5053 462.088 90.654C469.358 103.803 472.992 119.833 472.992 138.744ZM430.553 138.744C430.553 127.554 428.96 118.098 425.773 110.377C422.641 102.655 418.112 96.8083 412.185 92.8355C406.313 88.8638 399.241 86.8773 390.965 86.8773C382.745 86.8773 375.672 88.8638 369.745 92.8355C363.819 96.8083 359.262 102.655 356.074 110.377C352.942 118.098 351.376 127.554 351.376 138.744C351.376 149.934 352.942 159.39 356.074 167.111C359.262 174.832 363.819 180.679 369.745 184.652C375.672 188.625 382.745 190.611 390.965 190.611C399.241 190.611 406.313 188.625 412.185 184.652C418.112 180.679 422.641 174.832 425.773 167.111C428.96 159.39 430.553 149.934 430.553 138.744Z" fill="#F7F6F2"/>
<path d="M743.214 378.393H681.108V201.81H743.132C760.252 201.81 774.991 205.345 787.353 212.415C799.768 219.429 809.34 229.545 816.068 242.766C822.795 255.929 826.159 271.68 826.159 290.016C826.159 308.409 822.795 324.217 816.068 337.438C809.394 350.658 799.85 360.804 787.435 367.874C775.019 374.887 760.278 378.393 743.214 378.393ZM721.719 342.007H741.655C751.062 342.007 759.02 340.34 765.53 337.007C772.093 333.616 777.043 328.126 780.379 320.539C783.771 312.893 785.465 302.719 785.465 290.016C785.465 277.313 783.771 267.195 780.379 259.666C776.988 252.078 771.983 246.618 765.365 243.283C758.802 239.892 750.707 238.196 741.081 238.196H721.719V342.007Z" fill="#F7F6F2"/>
</svg>
