<svg width="276" height="276" viewBox="0 0 276 276" fill="none" xmlns="http://www.w3.org/2000/svg">
<circle cx="138" cy="138" r="138" fill="#F74C25"/>
<path d="M231 178.5C231 188.46 229.094 196.902 225.281 203.827C221.469 210.752 216.308 216.012 209.797 219.607C203.316 223.202 196.043 225 187.978 225C179.884 225 172.596 223.188 166.115 219.563C159.634 215.938 154.487 210.678 150.675 203.783C146.892 196.858 145 188.43 145 178.5C145 168.54 146.892 160.098 150.675 153.173C154.487 146.248 159.634 140.987 166.115 137.393C172.596 133.797 179.884 132 187.978 132C196.043 132 203.316 133.797 209.797 137.393C216.308 140.987 221.469 146.248 225.281 153.173C229.094 160.098 231 168.54 231 178.5ZM208.741 178.5C208.741 172.606 207.906 167.626 206.234 163.56C204.592 159.493 202.216 156.414 199.108 154.321C196.028 152.23 192.319 151.184 187.978 151.184C183.667 151.184 179.957 152.23 176.848 154.321C173.74 156.414 171.35 159.493 169.679 163.56C168.036 167.626 167.215 172.606 167.215 178.5C167.215 184.393 168.036 189.373 169.679 193.44C171.35 197.506 173.74 200.586 176.848 202.678C179.957 204.77 183.667 205.816 187.978 205.816C192.319 205.816 196.028 204.77 199.108 202.678C202.216 200.586 204.592 197.506 206.234 193.44C207.906 189.373 208.741 184.393 208.741 178.5Z" fill="#F7F6F2"/>
<path d="M131 98.5001C131 108.46 129.094 116.903 125.281 123.827C121.469 130.752 116.308 136.012 109.797 139.607C103.316 143.202 96.0429 145 87.978 145C79.884 145 72.5964 143.188 66.1152 139.563C59.6341 135.938 54.487 130.678 50.6747 123.783C46.8916 116.858 45 108.43 45 98.5001C45 88.5399 46.8916 80.0976 50.6747 73.1727C54.487 66.2477 59.6341 60.9876 66.1152 57.3926C72.5964 53.7975 79.884 52 87.978 52C96.0429 52 103.316 53.7975 109.797 57.3926C116.308 60.9876 121.469 66.2477 125.281 73.1727C129.094 80.0976 131 88.5399 131 98.5001ZM108.741 98.5001C108.741 92.6063 107.906 87.6263 106.234 83.5598C104.592 79.4933 102.216 76.4139 99.1076 74.3215C96.0281 72.2298 92.3186 71.1836 87.978 71.1836C83.6671 71.1836 79.9571 72.2298 76.8484 74.3215C73.7404 76.4139 71.3502 79.4933 69.6785 83.5598C68.0359 87.6263 67.2146 92.6063 67.2146 98.5001C67.2146 104.393 68.0359 109.373 69.6785 113.44C71.3502 117.506 73.7404 120.586 76.8484 122.678C79.9571 124.77 83.6671 125.817 87.978 125.817C92.3186 125.817 96.0281 124.77 99.1076 122.678C102.216 120.586 104.592 117.506 106.234 113.44C107.906 109.373 108.741 104.393 108.741 98.5001Z" fill="#F7F6F2"/>
</svg>
